# xmcd
#
# Track frame offsets:
#	150
#	11222
#	23292
#	44231
#	57352
#	69370
#	84360
#	100421
#	116635
#	127763
#	138128
#	154886
#	166823
#	180383
#	191576
#	206836
#
# Disc length: 3084 seconds
#
# Revision: 1
# Processed by: cddbd v1.5.2PL0 Copyright (c) Steve Scherf et al.
# Submitted via: audiograbber 1.83.01
#
DISCID=d10c0a10
DTITLE=Buddy Williams - Big Country Muster
DYEAR=2001
DGENRE=Country
TTITLE0=Back To Those Rolling Plains
TTITLE1=Over Hilltop And Hollow
TTITLE2=Camooweal
TTITLE3=Sulva Bay
TTITLE4=Highway Man
TTITLE5=Mother, Queen Of My Heart
TTITLE6=By A Fire Of Gidgee Coal
TTITLE7=The Blue Velvet Band
TTITLE8=Wild River
TTITLE9=The Overland Trial
TTITLE10=Wedding Bells
TTITLE11=The Big Banana Land
TTITLE12=Missing In Action
TTITLE13=Where The White Face Cattle Roam
TTITLE14=Old Sheep
TTITLE15=Our Milk And Honey Land
EXTD=
EXTT0=
EXTT1=
EXTT2=
EXTT3=
EXTT4=
EXTT5=
EXTT6=
EXTT7=
EXTT8=
EXTT9=
EXTT10=
EXTT11=
EXTT12=
EXTT13=
EXTT14=
EXTT15=
PLAYORDER=
